<svg width="32" height="32" viewBox="0 0 32 32" fill="none" xmlns="http://www.w3.org/2000/svg">
  <!-- Background circle -->
  <circle cx="16" cy="16" r="16" fill="#1e40af"/>
  
  <!-- Building icon -->
  <g fill="white">
    <!-- Main building -->
    <rect x="8" y="12" width="6" height="12" rx="1"/>
    <rect x="18" y="8" width="6" height="16" rx="1"/>
    
    <!-- Windows -->
    <rect x="9.5" y="14" width="1" height="1" fill="#1e40af"/>
    <rect x="11.5" y="14" width="1" height="1" fill="#1e40af"/>
    <rect x="9.5" y="16" width="1" height="1" fill="#1e40af"/>
    <rect x="11.5" y="16" width="1" height="1" fill="#1e40af"/>
    <rect x="9.5" y="18" width="1" height="1" fill="#1e40af"/>
    <rect x="11.5" y="18" width="1" height="1" fill="#1e40af"/>
    
    <rect x="19.5" y="10" width="1" height="1" fill="#1e40af"/>
    <rect x="21.5" y="10" width="1" height="1" fill="#1e40af"/>
    <rect x="19.5" y="12" width="1" height="1" fill="#1e40af"/>
    <rect x="21.5" y="12" width="1" height="1" fill="#1e40af"/>
    <rect x="19.5" y="14" width="1" height="1" fill="#1e40af"/>
    <rect x="21.5" y="14" width="1" height="1" fill="#1e40af"/>
    <rect x="19.5" y="16" width="1" height="1" fill="#1e40af"/>
    <rect x="21.5" y="16" width="1" height="1" fill="#1e40af"/>
    <rect x="19.5" y="18" width="1" height="1" fill="#1e40af"/>
    <rect x="21.5" y="18" width="1" height="1" fill="#1e40af"/>
    
    <!-- Door -->
    <rect x="10" y="20" width="2" height="4" fill="#1e40af"/>
    <rect x="20" y="20" width="2" height="4" fill="#1e40af"/>
    
    <!-- Roof details -->
    <polygon points="8,12 11,9 14,12" fill="#fbbf24"/>
    <polygon points="18,8 21,5 24,8" fill="#fbbf24"/>
  </g>
</svg>